<svg xmlns="http://www.w3.org/2000/svg" xmlns:xlink="http://www.w3.org/1999/xlink" width="500" zoomAndPan="magnify" viewBox="0 0 375 374.999991" height="500" preserveAspectRatio="xMidYMid meet" version="1.0"><defs><g/><clipPath id="40edcaff5f"><path d="M 13.039062 154 L 68 154 L 68 224 L 13.039062 224 Z M 13.039062 154 " clip-rule="nonzero"/></clipPath><clipPath id="6c2218b6dd"><path d="M 13.039062 153 L 69 153 L 69 224.140625 L 13.039062 224.140625 Z M 13.039062 153 " clip-rule="nonzero"/></clipPath><clipPath id="12ba867de4"><path d="M 53 143.140625 L 133 143.140625 L 133 179 L 53 179 Z M 53 143.140625 " clip-rule="nonzero"/></clipPath><clipPath id="71c33e484d"><path d="M 52 143.140625 L 135 143.140625 L 135 180 L 52 180 Z M 52 143.140625 " clip-rule="nonzero"/></clipPath><clipPath id="17e63f59b3"><path d="M 117 153 L 173.539062 153 L 173.539062 224.140625 L 117 224.140625 Z M 117 153 " clip-rule="nonzero"/></clipPath><clipPath id="fa31f2546b"><path d="M 69 188 L 118 188 L 118 226 L 69 226 Z M 69 188 " clip-rule="nonzero"/></clipPath><clipPath id="2c82bfa385"><path d="M 76.394531 183.757812 L 117.800781 190.785156 L 110.773438 232.191406 L 69.367188 225.164062 Z M 76.394531 183.757812 " clip-rule="nonzero"/></clipPath><clipPath id="d1b62f8b20"><path d="M 117.511719 190.734375 L 76.105469 183.707031 L 69.078125 225.117188 L 110.484375 232.144531 Z M 117.511719 190.734375 " clip-rule="nonzero"/></clipPath></defs><g clip-path="url(#40edcaff5f)"><path fill="#dc4c42" d="M 67.574219 178.734375 L 53.644531 154.605469 C 29.933594 168.308594 13.960938 193.90625 13.949219 223.257812 L 41.824219 223.265625 C 41.832031 204.230469 52.191406 187.628906 67.574219 178.738281 Z M 67.574219 178.734375 " fill-opacity="1" fill-rule="nonzero"/></g><g clip-path="url(#6c2218b6dd)"><path fill="#ffffff" d="M 42.667969 224.105469 L 13.105469 224.097656 L 13.105469 223.253906 C 13.109375 208.941406 16.941406 194.894531 24.179688 182.632812 C 31.207031 170.734375 41.25 160.789062 53.222656 153.871094 L 53.957031 153.449219 L 68.726562 179.039062 L 67.996094 179.460938 C 60.4375 183.828125 54.097656 190.109375 49.660156 197.617188 C 45.089844 205.355469 42.671875 214.222656 42.667969 223.261719 Z M 14.796875 222.410156 L 40.988281 222.417969 C 41.136719 213.371094 43.625 204.519531 48.207031 196.757812 C 52.648438 189.238281 58.9375 182.914062 66.425781 178.425781 L 53.339844 155.757812 C 41.941406 162.511719 32.375 172.082031 25.636719 183.484375 C 18.691406 195.25 14.949219 208.691406 14.796875 222.414062 Z M 14.796875 222.410156 " fill-opacity="1" fill-rule="nonzero"/></g><g clip-path="url(#12ba867de4)"><path fill="#f5da59" d="M 93.304688 171.84375 C 102.683594 171.84375 111.464844 174.371094 119.03125 178.75 L 132.972656 154.628906 C 121.308594 147.875 107.769531 143.988281 93.3125 143.984375 C 78.859375 143.980469 65.320312 147.859375 53.644531 154.605469 L 67.574219 178.734375 C 75.144531 174.359375 83.929688 171.84375 93.304688 171.84375 Z M 93.304688 171.84375 " fill-opacity="1" fill-rule="nonzero"/></g><g clip-path="url(#71c33e484d)"><path fill="#ffffff" d="M 119.339844 179.902344 L 118.605469 179.480469 C 110.933594 175.042969 102.183594 172.691406 93.304688 172.6875 C 84.421875 172.6875 75.667969 175.027344 67.996094 179.460938 L 67.261719 179.882812 L 52.492188 154.296875 L 53.222656 153.875 C 65.378906 146.847656 79.246094 143.136719 93.3125 143.140625 C 107.382812 143.144531 121.242188 146.867188 133.394531 153.902344 L 134.125 154.324219 L 119.339844 179.90625 Z M 54.800781 154.917969 L 67.886719 177.585938 C 75.636719 173.273438 84.40625 171 93.304688 171 C 102.199219 171 110.96875 173.285156 118.71875 177.601562 L 131.816406 154.945312 C 120.09375 148.328125 106.800781 144.835938 93.308594 144.832031 C 79.820312 144.828125 66.519531 148.316406 54.796875 154.917969 Z M 54.800781 154.917969 " fill-opacity="1" fill-rule="nonzero"/></g><path fill="#54ae59" d="M 132.972656 154.628906 L 119.03125 178.75 C 134.410156 187.652344 144.757812 204.261719 144.753906 223.296875 L 172.628906 223.308594 C 172.640625 193.957031 156.683594 168.351562 132.972656 154.632812 Z M 132.972656 154.628906 " fill-opacity="1" fill-rule="nonzero"/><g clip-path="url(#17e63f59b3)"><path fill="#ffffff" d="M 173.472656 224.148438 L 143.910156 224.136719 L 143.910156 223.292969 C 143.910156 214.257812 141.5 205.390625 136.933594 197.648438 C 132.503906 190.132812 126.167969 183.851562 118.609375 179.476562 L 117.878906 179.054688 L 132.667969 153.472656 L 133.398438 153.894531 C 145.367188 160.820312 155.402344 170.773438 162.425781 182.671875 C 169.65625 194.9375 173.480469 208.988281 173.472656 223.300781 Z M 145.589844 222.449219 L 171.78125 222.457031 C 171.640625 208.738281 167.90625 195.296875 160.96875 183.53125 C 154.238281 172.121094 144.679688 162.539062 133.28125 155.78125 L 120.183594 178.441406 C 127.667969 182.9375 133.953125 189.265625 138.390625 196.785156 C 142.964844 204.546875 145.453125 213.402344 145.59375 222.445312 Z M 145.589844 222.449219 " fill-opacity="1" fill-rule="nonzero"/></g><g clip-path="url(#fa31f2546b)"><g clip-path="url(#2c82bfa385)"><g clip-path="url(#d1b62f8b20)"><path fill="#004aad" d="M 106.210938 207.136719 C 101.824219 213.042969 95.636719 217.433594 88.601562 219.625 L 84.433594 213.734375 C 83.910156 213 83.039062 212.664062 82.207031 212.78125 C 79.507812 213.191406 76.675781 213.183594 73.832031 212.699219 C 72.5625 212.484375 71.375 213.328125 71.160156 214.597656 L 69.804688 222.589844 C 69.585938 223.859375 70.433594 225.046875 71.699219 225.265625 C 93.148438 228.902344 113.484375 214.46875 117.125 193.019531 C 117.339844 191.753906 116.484375 190.5625 115.226562 190.347656 L 107.234375 188.992188 C 105.964844 188.777344 104.777344 189.621094 104.5625 190.886719 C 104.078125 193.730469 103.152344 196.40625 101.875 198.820312 C 101.488281 199.566406 101.519531 200.5 102.039062 201.234375 Z M 106.210938 207.136719 " fill-opacity="1" fill-rule="nonzero"/></g></g></g><g fill="#004aad" fill-opacity="1"><g transform="translate(185.023186, 219.471941)"><g><path d="M 13.078125 -18.75 C 12.328125 -18.75 11.65625 -18.585938 11.0625 -18.265625 C 10.46875 -17.953125 9.957031 -17.492188 9.53125 -16.890625 C 9.113281 -16.285156 8.796875 -15.546875 8.578125 -14.671875 C 8.359375 -13.804688 8.25 -12.820312 8.25 -11.71875 C 8.25 -10.238281 8.4375 -8.988281 8.8125 -7.96875 C 9.1875 -6.957031 9.757812 -6.191406 10.53125 -5.671875 C 11.300781 -5.160156 12.269531 -4.90625 13.4375 -4.90625 C 14.5 -4.90625 15.515625 -5.050781 16.484375 -5.34375 C 17.460938 -5.632812 18.445312 -5.984375 19.4375 -6.390625 L 19.4375 -0.984375 C 18.394531 -0.523438 17.328125 -0.191406 16.234375 0.015625 C 15.140625 0.222656 13.976562 0.328125 12.75 0.328125 C 10.175781 0.328125 8.070312 -0.179688 6.4375 -1.203125 C 4.8125 -2.222656 3.613281 -3.640625 2.84375 -5.453125 C 2.070312 -7.265625 1.6875 -9.367188 1.6875 -11.765625 C 1.6875 -13.546875 1.9375 -15.179688 2.4375 -16.671875 C 2.9375 -18.160156 3.671875 -19.453125 4.640625 -20.546875 C 5.609375 -21.640625 6.804688 -22.484375 8.234375 -23.078125 C 9.671875 -23.679688 11.3125 -23.984375 13.15625 -23.984375 C 14.289062 -23.984375 15.492188 -23.847656 16.765625 -23.578125 C 18.035156 -23.316406 19.273438 -22.898438 20.484375 -22.328125 L 18.515625 -17.296875 C 17.648438 -17.703125 16.773438 -18.046875 15.890625 -18.328125 C 15.015625 -18.609375 14.078125 -18.75 13.078125 -18.75 Z M 13.078125 -18.75 "/></g></g></g><g fill="#004aad" fill-opacity="1"><g transform="translate(206.519368, 219.471941)"><g><path d="M 11.125 -18.65625 C 13.445312 -18.65625 15.257812 -18.078125 16.5625 -16.921875 C 17.863281 -15.773438 18.515625 -14.140625 18.515625 -12.015625 L 18.515625 0 L 14.140625 0 L 12.921875 -2.421875 L 12.796875 -2.421875 C 12.273438 -1.773438 11.742188 -1.25 11.203125 -0.84375 C 10.660156 -0.445312 10.035156 -0.15625 9.328125 0.03125 C 8.628906 0.226562 7.773438 0.328125 6.765625 0.328125 C 5.703125 0.328125 4.75 0.113281 3.90625 -0.3125 C 3.070312 -0.75 2.410156 -1.40625 1.921875 -2.28125 C 1.441406 -3.15625 1.203125 -4.257812 1.203125 -5.59375 C 1.203125 -7.5625 1.878906 -9.019531 3.234375 -9.96875 C 4.585938 -10.914062 6.554688 -11.445312 9.140625 -11.5625 L 12.203125 -11.65625 L 12.203125 -11.921875 C 12.203125 -12.742188 12 -13.328125 11.59375 -13.671875 C 11.1875 -14.015625 10.644531 -14.1875 9.96875 -14.1875 C 9.238281 -14.1875 8.429688 -14.054688 7.546875 -13.796875 C 6.660156 -13.546875 5.769531 -13.222656 4.875 -12.828125 L 3.046875 -17 C 4.097656 -17.539062 5.289062 -17.953125 6.625 -18.234375 C 7.96875 -18.515625 9.46875 -18.65625 11.125 -18.65625 Z M 12.234375 -8.1875 L 10.765625 -8.125 C 9.609375 -8.082031 8.796875 -7.878906 8.328125 -7.515625 C 7.859375 -7.148438 7.625 -6.632812 7.625 -5.96875 C 7.625 -5.34375 7.789062 -4.878906 8.125 -4.578125 C 8.457031 -4.285156 8.898438 -4.140625 9.453125 -4.140625 C 10.210938 -4.140625 10.863281 -4.378906 11.40625 -4.859375 C 11.957031 -5.347656 12.234375 -5.984375 12.234375 -6.765625 Z M 12.234375 -8.1875 "/></g></g></g><g fill="#004aad" fill-opacity="1"><g transform="translate(227.15829, 219.471941)"><g><path d="M 8.5 0 L 2.1875 0 L 2.1875 -25.171875 L 8.5 -25.171875 Z M 8.5 0 "/></g></g></g><g fill="#004aad" fill-opacity="1"><g transform="translate(237.865944, 219.471941)"><g><path d="M 8.5 0 L 2.1875 0 L 2.1875 -25.171875 L 8.5 -25.171875 Z M 8.5 0 "/></g></g></g><g fill="#004aad" fill-opacity="1"><g transform="translate(248.573598, 219.471941)"><g><path d="M 12.046875 -13.84375 L 22.25 -13.84375 L 22.25 -1.09375 C 21.03125 -0.675781 19.632812 -0.332031 18.0625 -0.0625 C 16.488281 0.195312 14.84375 0.328125 13.125 0.328125 C 10.84375 0.328125 8.84375 -0.113281 7.125 -1 C 5.414062 -1.882812 4.082031 -3.226562 3.125 -5.03125 C 2.164062 -6.84375 1.6875 -9.128906 1.6875 -11.890625 C 1.6875 -14.367188 2.160156 -16.507812 3.109375 -18.3125 C 4.054688 -20.125 5.453125 -21.519531 7.296875 -22.5 C 9.148438 -23.488281 11.421875 -23.984375 14.109375 -23.984375 C 15.578125 -23.984375 16.972656 -23.84375 18.296875 -23.5625 C 19.628906 -23.28125 20.785156 -22.925781 21.765625 -22.5 L 19.75 -17.484375 C 18.894531 -17.898438 18.007812 -18.210938 17.09375 -18.421875 C 16.175781 -18.640625 15.191406 -18.75 14.140625 -18.75 C 12.722656 -18.75 11.585938 -18.429688 10.734375 -17.796875 C 9.878906 -17.160156 9.253906 -16.3125 8.859375 -15.25 C 8.472656 -14.1875 8.28125 -13.007812 8.28125 -11.71875 C 8.28125 -10.257812 8.488281 -9.023438 8.90625 -8.015625 C 9.320312 -7.003906 9.929688 -6.238281 10.734375 -5.71875 C 11.535156 -5.195312 12.507812 -4.9375 13.65625 -4.9375 C 14.03125 -4.9375 14.488281 -4.960938 15.03125 -5.015625 C 15.570312 -5.066406 15.984375 -5.128906 16.265625 -5.203125 L 16.265625 -8.90625 L 12.046875 -8.90625 Z M 12.046875 -13.84375 "/></g></g></g><g fill="#004aad" fill-opacity="1"><g transform="translate(273.094448, 219.471941)"><g><path d="M 11.125 -18.65625 C 13.445312 -18.65625 15.257812 -18.078125 16.5625 -16.921875 C 17.863281 -15.773438 18.515625 -14.140625 18.515625 -12.015625 L 18.515625 0 L 14.140625 0 L 12.921875 -2.421875 L 12.796875 -2.421875 C 12.273438 -1.773438 11.742188 -1.25 11.203125 -0.84375 C 10.660156 -0.445312 10.035156 -0.15625 9.328125 0.03125 C 8.628906 0.226562 7.773438 0.328125 6.765625 0.328125 C 5.703125 0.328125 4.75 0.113281 3.90625 -0.3125 C 3.070312 -0.75 2.410156 -1.40625 1.921875 -2.28125 C 1.441406 -3.15625 1.203125 -4.257812 1.203125 -5.59375 C 1.203125 -7.5625 1.878906 -9.019531 3.234375 -9.96875 C 4.585938 -10.914062 6.554688 -11.445312 9.140625 -11.5625 L 12.203125 -11.65625 L 12.203125 -11.921875 C 12.203125 -12.742188 12 -13.328125 11.59375 -13.671875 C 11.1875 -14.015625 10.644531 -14.1875 9.96875 -14.1875 C 9.238281 -14.1875 8.429688 -14.054688 7.546875 -13.796875 C 6.660156 -13.546875 5.769531 -13.222656 4.875 -12.828125 L 3.046875 -17 C 4.097656 -17.539062 5.289062 -17.953125 6.625 -18.234375 C 7.96875 -18.515625 9.46875 -18.65625 11.125 -18.65625 Z M 12.234375 -8.1875 L 10.765625 -8.125 C 9.609375 -8.082031 8.796875 -7.878906 8.328125 -7.515625 C 7.859375 -7.148438 7.625 -6.632812 7.625 -5.96875 C 7.625 -5.34375 7.789062 -4.878906 8.125 -4.578125 C 8.457031 -4.285156 8.898438 -4.140625 9.453125 -4.140625 C 10.210938 -4.140625 10.863281 -4.378906 11.40625 -4.859375 C 11.957031 -5.347656 12.234375 -5.984375 12.234375 -6.765625 Z M 12.234375 -8.1875 "/></g></g></g><g fill="#004aad" fill-opacity="1"><g transform="translate(293.73337, 219.471941)"><g><path d="M 20 -18.328125 L 20 0 L 15.234375 0 L 14.4375 -2.28125 L 14.078125 -2.28125 C 13.691406 -1.664062 13.210938 -1.164062 12.640625 -0.78125 C 12.066406 -0.394531 11.425781 -0.113281 10.71875 0.0625 C 10.019531 0.238281 9.296875 0.328125 8.546875 0.328125 C 7.347656 0.328125 6.265625 0.0976562 5.296875 -0.359375 C 4.328125 -0.828125 3.5625 -1.554688 3 -2.546875 C 2.4375 -3.546875 2.15625 -4.828125 2.15625 -6.390625 L 2.15625 -18.328125 L 8.46875 -18.328125 L 8.46875 -8.3125 C 8.46875 -7.125 8.640625 -6.21875 8.984375 -5.59375 C 9.328125 -4.976562 9.882812 -4.671875 10.65625 -4.671875 C 11.457031 -4.671875 12.078125 -4.882812 12.515625 -5.3125 C 12.953125 -5.75 13.253906 -6.382812 13.421875 -7.21875 C 13.597656 -8.0625 13.6875 -9.085938 13.6875 -10.296875 L 13.6875 -18.328125 Z M 20 -18.328125 "/></g></g></g><g fill="#004aad" fill-opacity="1"><g transform="translate(315.925063, 219.471941)"><g><path d="M 8.4375 7.953125 C 5.84375 7.953125 3.84375 7.519531 2.4375 6.65625 C 1.03125 5.789062 0.328125 4.539062 0.328125 2.90625 C 0.328125 1.820312 0.664062 0.921875 1.34375 0.203125 C 2.019531 -0.503906 3.039062 -1.015625 4.40625 -1.328125 C 3.84375 -1.566406 3.351562 -1.945312 2.9375 -2.46875 C 2.519531 -3 2.3125 -3.523438 2.3125 -4.046875 C 2.3125 -4.617188 2.46875 -5.125 2.78125 -5.5625 C 3.09375 -6 3.742188 -6.515625 4.734375 -7.109375 C 3.785156 -7.535156 3.039062 -8.195312 2.5 -9.09375 C 1.957031 -9.988281 1.6875 -11.078125 1.6875 -12.359375 C 1.6875 -13.679688 1.988281 -14.8125 2.59375 -15.75 C 3.207031 -16.6875 4.097656 -17.40625 5.265625 -17.90625 C 6.429688 -18.40625 7.859375 -18.65625 9.546875 -18.65625 C 9.765625 -18.65625 10.109375 -18.632812 10.578125 -18.59375 C 11.046875 -18.550781 11.515625 -18.503906 11.984375 -18.453125 C 12.460938 -18.410156 12.828125 -18.367188 13.078125 -18.328125 L 19.46875 -18.328125 L 19.46875 -15.265625 L 16.96875 -14.34375 C 17.132812 -14.03125 17.257812 -13.691406 17.34375 -13.328125 C 17.4375 -12.960938 17.484375 -12.570312 17.484375 -12.15625 C 17.484375 -10.1875 16.789062 -8.65625 15.40625 -7.5625 C 14.019531 -6.476562 11.953125 -5.9375 9.203125 -5.9375 C 8.523438 -5.9375 7.984375 -5.976562 7.578125 -6.0625 C 7.503906 -5.925781 7.445312 -5.789062 7.40625 -5.65625 C 7.375 -5.519531 7.359375 -5.390625 7.359375 -5.265625 C 7.359375 -5.023438 7.503906 -4.832031 7.796875 -4.6875 C 8.097656 -4.539062 8.460938 -4.4375 8.890625 -4.375 C 9.316406 -4.320312 9.722656 -4.296875 10.109375 -4.296875 L 13.15625 -4.296875 C 15.207031 -4.296875 16.742188 -3.863281 17.765625 -3 C 18.796875 -2.144531 19.3125 -0.847656 19.3125 0.890625 C 19.3125 3.117188 18.359375 4.851562 16.453125 6.09375 C 14.554688 7.332031 11.882812 7.953125 8.4375 7.953125 Z M 8.75 4.015625 C 9.519531 4.015625 10.289062 3.945312 11.0625 3.8125 C 11.84375 3.675781 12.492188 3.457031 13.015625 3.15625 C 13.546875 2.851562 13.8125 2.453125 13.8125 1.953125 C 13.8125 1.578125 13.65625 1.296875 13.34375 1.109375 C 13.03125 0.921875 12.625 0.789062 12.125 0.71875 C 11.632812 0.65625 11.113281 0.625 10.5625 0.625 L 8.109375 0.625 C 7.648438 0.625 7.234375 0.695312 6.859375 0.84375 C 6.492188 0.988281 6.203125 1.1875 5.984375 1.4375 C 5.765625 1.6875 5.65625 1.96875 5.65625 2.28125 C 5.65625 2.800781 5.9375 3.21875 6.5 3.53125 C 7.0625 3.851562 7.8125 4.015625 8.75 4.015625 Z M 9.609375 -9.515625 C 10.210938 -9.515625 10.675781 -9.742188 11 -10.203125 C 11.332031 -10.671875 11.5 -11.367188 11.5 -12.296875 C 11.5 -13.242188 11.34375 -13.953125 11.03125 -14.421875 C 10.71875 -14.898438 10.242188 -15.140625 9.609375 -15.140625 C 8.953125 -15.140625 8.460938 -14.90625 8.140625 -14.4375 C 7.816406 -13.96875 7.65625 -13.265625 7.65625 -12.328125 C 7.65625 -11.390625 7.816406 -10.6875 8.140625 -10.21875 C 8.460938 -9.75 8.953125 -9.515625 9.609375 -9.515625 Z M 9.609375 -9.515625 "/></g></g></g><g fill="#004aad" fill-opacity="1"><g transform="translate(335.997871, 219.471941)"><g><path d="M 10.4375 -18.65625 C 12.207031 -18.65625 13.738281 -18.34375 15.03125 -17.71875 C 16.332031 -17.09375 17.332031 -16.160156 18.03125 -14.921875 C 18.726562 -13.679688 19.078125 -12.128906 19.078125 -10.265625 L 19.078125 -7.453125 L 7.78125 -7.453125 C 7.832031 -6.492188 8.1875 -5.707031 8.84375 -5.09375 C 9.507812 -4.476562 10.492188 -4.171875 11.796875 -4.171875 C 12.929688 -4.171875 13.976562 -4.285156 14.9375 -4.515625 C 15.894531 -4.742188 16.878906 -5.09375 17.890625 -5.5625 L 17.890625 -1.015625 C 17.003906 -0.554688 16.035156 -0.21875 14.984375 0 C 13.941406 0.21875 12.625 0.328125 11.03125 0.328125 C 9.1875 0.328125 7.535156 0 6.078125 -0.65625 C 4.617188 -1.320312 3.472656 -2.34375 2.640625 -3.71875 C 1.804688 -5.101562 1.390625 -6.878906 1.390625 -9.046875 C 1.390625 -11.242188 1.765625 -13.050781 2.515625 -14.46875 C 3.273438 -15.882812 4.332031 -16.9375 5.6875 -17.625 C 7.050781 -18.3125 8.632812 -18.65625 10.4375 -18.65625 Z M 10.65625 -14.34375 C 9.914062 -14.34375 9.289062 -14.109375 8.78125 -13.640625 C 8.28125 -13.171875 7.988281 -12.4375 7.90625 -11.4375 L 13.34375 -11.4375 C 13.332031 -11.976562 13.222656 -12.46875 13.015625 -12.90625 C 12.816406 -13.34375 12.519531 -13.691406 12.125 -13.953125 C 11.726562 -14.210938 11.238281 -14.34375 10.65625 -14.34375 Z M 10.65625 -14.34375 "/></g></g></g></svg>